<!DOCTYPE svg PUBLIC "-//W3C//DTD SVG 1.1//EN" "http://www.w3.org/Graphics/SVG/1.1/DTD/svg11.dtd">
<!-- Uploaded to: SVG Repo, www.svgrepo.com, Transformed by: SVG Repo Mixer Tools -->
<svg fill="#ffffff" height="800px" width="800px" version="1.1" id="Layer_1" xmlns="http://www.w3.org/2000/svg" xmlns:xlink="http://www.w3.org/1999/xlink" viewBox="-15.36 -15.36 542.72 542.72" xml:space="preserve">
<g id="SVGRepo_bgCarrier" stroke-width="0">
<rect x="-15.36" y="-15.36" width="542.72" height="542.72" rx="0" fill="#2ec27e" strokewidth="0"/>
</g>
<g id="SVGRepo_tracerCarrier" stroke-linecap="round" stroke-linejoin="round"/>
<g id="SVGRepo_iconCarrier"> <g> <g> <path d="M455.611,187.151c-8.994-46.164-22.363-82.382-40.869-110.723C380.693,24.286,330.252,0,256,0 S131.306,24.286,97.256,76.428c-18.507,28.341-31.875,64.559-40.869,110.723c-9.137,46.9-13.579,103.026-13.579,171.583v7.406 l5.732,4.689c2.142,1.752,54.122,43.967,199.093,135.868L256,512l8.366-5.303c144.972-91.9,196.951-134.116,199.094-135.867 l5.732-4.689v-7.406C469.191,290.178,464.749,234.052,455.611,187.151z M256,474.988 C144.886,404.262,90.707,363.956,74.079,351.148c0.631-123.456,16.79-207.783,49.344-257.633 C151.542,50.455,192.43,31.252,256,31.252c63.569,0,104.457,19.203,132.577,62.263c32.553,49.85,48.712,134.177,49.343,257.633 C421.284,363.961,367.106,404.268,256,474.988z"/> </g> </g> <g> <g> <path d="M298.823,178.621c-17.436-19.217-35.202-28.043-35.95-28.41L256,146.845l-6.874,3.367 c-0.748,0.367-18.513,9.192-35.95,28.41c-23.097,25.456-35.305,57.54-35.305,92.784c0,82.302,64.61,144.686,67.362,147.301 L256,428.945l10.767-10.239c2.751-2.616,67.362-64.999,67.362-147.301C334.128,236.162,321.919,204.077,298.823,178.621z M256,384.215c-16.693-19.923-46.877-62.858-46.877-112.809c0-51.755,32.328-79.248,46.873-88.998 c14.59,9.782,46.881,37.275,46.881,88.998C302.877,321.356,272.693,364.292,256,384.215z"/> </g> </g> <g> <g> <path d="M172.578,119.202c-11.306,0-20.507,9.295-20.507,20.772c0,11.476,9.2,20.779,20.507,20.779 c11.321,0,20.52-9.304,20.52-20.779C193.097,128.496,183.899,119.202,172.578,119.202z"/> </g> </g> <g> <g> <path d="M339.267,119.039c-11.415,0-20.675,9.372-20.675,20.934s9.26,20.934,20.675,20.934c11.402,0,20.661-9.372,20.661-20.934 C359.927,128.411,350.668,119.039,339.267,119.039z"/> </g> </g> </g>
</svg>